# xmcd
#
# Track frame offsets:
#	150
#	6686
#	16837
#	34630
#	47245
#	57995
#	71552
#	84455
#	97935
#	112689
#	129970
#	135407
#	142640
#	153270
#	173585
#	191775
#	210829
#	225037
#	236010
#	250952
#	268032
#	286805
#
# Disc length: 4151 seconds
#
# Revision: 0
# Processed by: cddbd v1.5.2PL0 Copyright (c) Steve Scherf et al.
# Submitted via: EasyCDDAExtractor 16.0.8.2
#
DISCID=12103516
DTITLE=Βενετσάνου Νένα - Εικόνες-Ν. Βενετσάνου
DYEAR=1996
DGENRE=Ποικίλη
TTITLE0=Δελφικός ύμνος
TTITLE1=Κέλομαι σε Γογγύλα
TTITLE2=Λίληθ
TTITLE3=Voluptas
TTITLE4=L' amoureuse (Η ερωμένη)
TTITLE5=Θέλω να μού μιλήσεις
TTITLE6=Τα νησιά
TTITLE7=Δεν είν' αυγή να σηκωθώ
TTITLE8=Τζιβαέρι
TTITLE9=Μέσ' στου Αιγαίου τα νησιά
TTITLE10=Κοιμάται η Κρήτη
TTITLE11=Το τραγούδι της Ελένης
TTITLE12=Το τραγούδι της γυναίκας
TTITLE13=Γύρνα φτερωτή του μύλου
TTITLE14=Το λιμάνι
TTITLE15=Ήσουν παιδί σαν τον Χριστό
TTITLE16=Έλα πάρε μου την λύπη
TTITLE17=Μαριάνθη των ανέμων
TTITLE18=Μαρίνα
TTITLE19=Όμορφη πόλη
TTITLE20=Αρνήσεις (Στο περιγιάλι το κρυφό)
TTITLE21=Δρόμοι παλιοί
EXTD=
EXTT0=
EXTT1=
EXTT2=
EXTT3=
EXTT4=
EXTT5=
EXTT6=
EXTT7=
EXTT8=
EXTT9=
EXTT10=
EXTT11=
EXTT12=
EXTT13=
EXTT14=
EXTT15=
EXTT16=
EXTT17=
EXTT18=
EXTT19=
EXTT20=
EXTT21=
PLAYORDER=
